<svg width="446" height="396" viewBox="0 0 446 396" fill="none" xmlns="http://www.w3.org/2000/svg">
<path d="M406.4 335.54H377.935C374.837 335.54 372.333 333.032 372.333 329.938C372.333 326.849 374.837 324.337 377.935 324.337H406.4C421.838 324.337 434.4 311.775 434.4 296.337V39.6568C434.4 24.2188 421.838 11.6568 406.4 11.6568H39.6C24.162 11.6568 11.6 24.2188 11.6 39.6568V296.337C11.6 311.775 24.162 324.337 39.6 324.337H260.33C263.428 324.337 265.932 326.845 265.932 329.938C265.932 333.028 263.428 335.54 260.33 335.54L39.6 335.536C17.991 335.536 0.401001 317.95 0.401001 296.337L0.397095 39.6571C0.397095 18.0401 17.9871 0.458099 39.5961 0.458099H406.396C428.005 0.458099 445.595 18.0441 445.595 39.6571V296.337C445.599 317.954 428.009 335.536 406.396 335.536L406.4 335.54Z" fill="#FF8000"/>
<path d="M440 81.01H6.00001C2.90231 81.01 0.398407 78.5022 0.398407 75.4084C0.398407 72.3186 2.90231 69.8068 6.00001 69.8068H440C443.098 69.8068 445.602 72.3146 445.602 75.4084C445.602 78.5022 443.098 81.01 440 81.01Z" fill="#FF8000"/>
<path d="M347.6 59.27C338.081 59.27 330.334 51.5239 330.334 42.004C330.334 32.4845 338.08 24.738 347.6 24.738C357.12 24.738 364.866 32.4841 364.866 42.004C364.862 51.5274 357.12 59.27 347.6 59.27ZM347.6 35.942C344.252 35.942 341.534 38.6647 341.534 42.0084C341.534 45.3521 344.248 48.0748 347.6 48.0748C350.948 48.0748 353.666 45.3521 353.666 42.0084C353.663 38.6646 350.948 35.942 347.6 35.942Z" fill="#FF8000"/>
<path d="M297.2 59.27C287.681 59.27 279.934 51.5239 279.934 42.004C279.934 32.4845 287.68 24.738 297.2 24.738C306.72 24.738 314.466 32.4841 314.466 42.004C314.466 51.5274 306.72 59.27 297.2 59.27ZM297.2 35.942C293.852 35.942 291.134 38.6647 291.134 42.0084C291.134 45.3521 293.848 48.0748 297.2 48.0748C300.548 48.0748 303.266 45.3521 303.266 42.0084C303.266 38.6647 300.548 35.942 297.2 35.942Z" fill="#FF8000"/>
<path d="M398 59.27C388.481 59.27 380.734 51.5239 380.734 42.004C380.734 32.4845 388.48 24.738 398 24.738C407.52 24.738 415.266 32.4841 415.266 42.004C415.266 51.5274 407.52 59.27 398 59.27ZM398 35.942C394.652 35.942 391.934 38.6647 391.934 42.0084C391.934 45.3521 394.648 48.0748 398 48.0748C401.348 48.0748 404.066 45.3521 404.066 42.0084C404.066 38.6647 401.348 35.942 398 35.942Z" fill="#FF8000"/>
<path d="M248.33 380.32C247.721 380.32 247.092 380.215 246.482 380C243.564 378.976 242.025 375.781 243.049 372.867L300.186 209.727C300.971 207.481 303.092 205.981 305.467 205.981H335.752C338.131 205.981 340.256 207.489 341.033 209.727L398.17 372.857C399.193 375.775 397.654 378.97 394.736 379.99C391.834 381.013 388.623 379.474 387.608 376.556L331.78 217.166H309.436L253.608 376.556C252.811 378.865 250.651 380.318 248.33 380.318L248.33 380.32Z" fill="#FF8000"/>
<path d="M346.82 251.54H294.394C291.296 251.54 288.792 249.032 288.792 245.938C288.792 242.849 291.296 240.337 294.394 240.337H346.82C349.918 240.337 352.422 242.845 352.422 245.938C352.422 249.032 349.918 251.54 346.82 251.54Z" fill="#FF8000"/>
<path d="M357.01 284.11H284.479C281.381 284.11 278.877 281.602 278.877 278.508C278.877 275.419 281.381 272.907 284.479 272.907L357.01 272.911C360.108 272.911 362.612 275.418 362.612 278.512C362.612 281.602 360.1 284.11 357.01 284.11V284.11Z" fill="#FF8000"/>
<path d="M370.13 316.48H271.083C267.985 316.48 265.481 313.972 265.481 310.878C265.481 307.789 267.985 305.277 271.083 305.277H370.138C373.236 305.277 375.74 307.785 375.74 310.878C375.736 313.972 373.228 316.48 370.13 316.48H370.13Z" fill="#FF8000"/>
<path d="M381.77 348.55H261.16C258.062 348.55 255.558 346.042 255.558 342.948C255.558 339.859 258.062 337.347 261.16 337.347H381.77C384.868 337.347 387.372 339.855 387.372 342.948C387.372 346.038 384.868 348.55 381.778 348.55H381.77Z" fill="#FF8000"/>
<path d="M394.39 395.53H249.44C239.842 395.53 232.327 389.729 232.327 382.327C232.327 374.925 239.843 369.124 249.44 369.124H394.39C403.988 369.124 411.511 374.925 411.511 382.327C411.511 389.729 403.988 395.53 394.386 395.53H394.39ZM249.44 380.315C245.854 380.315 243.745 381.842 243.503 382.456C243.745 382.803 245.854 384.331 249.44 384.331H394.39C397.976 384.331 400.089 382.803 400.331 382.19C400.089 381.85 397.972 380.319 394.39 380.319L249.44 380.323V380.315Z" fill="#FF8000"/>
</svg>
